<svg id="Layer_1" data-name="Layer 1" xmlns="http://www.w3.org/2000/svg" width="592.07" height="201.56" viewBox="0 0 592.07 201.56"><defs><style>.cls-1{fill:#fff;}</style></defs><title>LOGO</title><path class="cls-1" d="M638.13,363.05c.13-.29.25-.58.39-.87A4.81,4.81,0,0,0,638.13,363.05Z" transform="translate(-195.03 -230.22)"/><path class="cls-1" d="M717.06,284.18h0Z" transform="translate(-195.03 -230.22)"/><path class="cls-1" d="M640.16,296.88l1.63.31a8.42,8.42,0,0,1-.57-.9C640.77,296.32,640.33,296.38,640.16,296.88Z" transform="translate(-195.03 -230.22)"/><path class="cls-1" d="M756.38,273.29c-1.48.16-2.12-.53-2-2l-2.84-.26a14.42,14.42,0,0,0-1.83.57c-3.71,1.7-7,4.88-11.71,2.72-1.2-.55-2.64,0-3.32,1.9-1.47,4.19-10.43,9.68-15,9.51.92-1.74,2.08-3.38,1.89-5.46-.41-1,.12-2.31-1-3-1,.19-.65,2.9-2.55,1.41v0a7.16,7.16,0,0,1,.33,1.12c0-.12.09-.25.15-.37-.05.14-.09.29-.14.43a5,5,0,0,1-1,4.29h0c.46,1.39-.12,2.48-.72,3.84.43,0-.21.73-.28,1.1,0-.17,0-.32,0-.48-.11.26-.21.53-.3.82-.66-2.42.8-3.7.86-5.28.38-1.82.76-3.64,1.13-5.48v0l-.1.33.08-.37h0c1.33-2.81,1.47-6.09,3.46-8.63-.31-1.76.84-3.15,1.2-4.74a9.09,9.09,0,0,1,1.74-5.07h0a95.54,95.54,0,0,1,4.34-17l-.17-2a1.54,1.54,0,0,1-1,.1c-2.83,1.53-2.83,1.53-3.85-3.1-.74-1.34.1-2.16,1-3-.25-.91.28-2.13-1-2.63h0c-1.55,1.12-1.77,3-2.56,4.51-1.82,3.59-2.39,8.29-7.57,9.09-1,1.31.49,4.62-3.08,4-1.34,0-.91-1.68-1.91-2-4.54,1.15-2.35,5-2.88,7.6-3.6,17.69-7.3,35.34-13.07,52.49a1.63,1.63,0,0,1-1,2c-1.39.69-.88-.77-1.21-1.24a4.86,4.86,0,0,1-1-3.6,3.22,3.22,0,0,1-.41-1.37c-.84-2.43-2.15-4.81-.38-7.47l-.12-1.27h0c-2.65.15-2.28-2-2.36-3.44a38.85,38.85,0,0,1,.41-5.44c-.39-3,1.44-5.41,1.93-8.16l-.07-6.84c-1.57-2.24-.45-4.77-.75-7.15l-1.31-2.93-1.52,2.12c-.63-1.17-2.41-1.59-2.17-3.33l-.43-3.89c-1.22-2.88,1.3-1.53,2.23-2h0c1.7-4.5-2.89-7.22-3.23-11.17,0-.28-1-.53-1.64-.68-2-.52-4.09-1-6.13-1.49-1.8-1.18-2.45,1.54-4,1.18-3.47,2.48-3,7-5.25,10.12-.1.81.69,2.19-1.14,1.9-.5-.08-1.52.56-1.42-.5.06-.59,1.63-.12,1.65-1.29-9.05,1.22-18.13,2.31-27.15,3.73-4.39.69-7.17-1.42-6.86-5.86l.15-1.89c-4.18-1.39-9.24-.18-11.45,1.89a98,98,0,0,0-8.64,10.06,3.14,3.14,0,0,1-2.9,2.85,104.56,104.56,0,0,0-14,5.93c-4.68,2.38-4.34,4.23-3.44,8s4.08,5.13,6.45,7.39c1.52-.13,3-.28,4.37.75h0c1.34,3-.42,4.15-2.93,4.33a44.62,44.62,0,0,1-6.45-.41c-1.52.06-3.06.27-4.41-.7h0c-6.25.37-12.4-.8-18.59-1.3-1.83,0-3.73.42-5.42-.7h0a54.68,54.68,0,0,1-12.17,0,5.57,5.57,0,0,1-5.82,0h0l-6.58-.31c-.81.08-1.83.24-1.95-.83s.93-1.56,1.74-2.06a12.52,12.52,0,0,1,4.23-5.43c14.79-11.58,32-17.9,49.88-22.69,0-1.06.09-2.09,1.11-2.74.89-2.1,2.85-.91,4.27-1.31,4.24-1.19,8.88-1.48,11.47-5.86.2-.77,1.53-.8,1.24-1.9-3.92-1.65-1.59-4.35-1.12-6.73-.6-1.24-1.34-2.33-2.85-2.57h0c-1.52-1.2-3.43-.29-5-.93l-3.06-1.54c-2.3,1.8-6.18-.94-7.83,2.74.89,1.74.89,1.74-3.12,2.75-8.75,1.73-16.78,5.69-24.86,9.08-10.75,4.51-20.75,10.82-31.07,16.36,1,1.48-.53,2-1.08,2.93-6.52,5.92-11,13-12.43,21.83-.47,2.87-3,5.19-2.3,8.48,1.13,5.46,7.5,10.38,13.22,10.6,4.89.19,9.69-2.08,14.6-.39a3.32,3.32,0,0,1,.41-.59c3-2,6.38-.63,9.56-1,4.86,1.68,10.13,0,15,1.87,3.65,1.34,7.43,1,11.19.87,4.66-.14,7.84,3,6.57,7.33-1.13,3.86-3,8.27-7.31,9.25-2.79.64-3.17,2.36-4.26,4h0c-.26,1.83-1.57,2.65-3.12,3.22.32,2-1.36,1-2.12,1.45-5.31,6-11.71,10.88-17.8,16.06a6.5,6.5,0,0,1-3.21,2.75h0l-3,3.09h0c-1,1.54-2.55,1.21-4,1.13l-20.75,17.06h0c-1,1.08-1.57,3-3.72,2,.15,2-1.27,1.85-2.57,1.86-2.23,4.11-6.81,5.73-9.69,9.16l-3.21,4.57c-6.49,8.66-14.91,15.31-23,22.29,2,3.26-1.35,3.63-2.74,5.05h0a10.59,10.59,0,0,1-4.21,4.06h0a2.74,2.74,0,0,1-2.05,1.64,12,12,0,0,0-4.18,6.14c2.89-2.17,4.78-3.65,7.21-2.78,5.08-4.13,10.1-8.33,16.59-11-1.16,3-3.65,4.14-5.54,5.88,2.31,1.4,4.6-1.27,6.9,0,9.61-7.15,19-14.66,28.42-22,15.62-12.12,30.54-25.15,45.8-37.74,5.17-4.26,5.23-4.19,7.83,1.22,1,2.51,3.23,1.55,5,1.89,3.19-.93,2,1.32,2,2.71l.91,2h0l2.35-4.67.67,4.78h0l.06.08,1.69-.31c-.41-3.38,4.69-.14,4.49-3.91-.15-2.82,2.36-3.72,5-4,11.2-1.16,21.88-4.77,32.86-7a.92.92,0,0,0,0-1h-4.88c2.13-1.4,3.34-2.34,5.08-1.84h1.83l5.9-1.29c.52-3.51,3.06-2.19,5.08-2.13h0c.94.23,1.47.86,1.13,1.78-1.51,4-1.27,8.31-2.15,12.42.2,1-.07,2.18.84,3,.7-1.6,1.48-3.16,2.08-4.8.83-2.22,2.36-2.17,4.17-1.49h0c1.94-.29.63,2.15,2,2.36,3.71-1.08.63-5.72,3.73-7.11l3.29-8.9c.82-4,.09-8.33,2.9-12.91.79,5-1.16,8.89-1,12.88l1.19.08c1.2-4.95,2.57-9.86,3.56-14.85,1.22-6.12,6.24-10.76,6.53-17.2,0-1.44-.55-3,.71-4.2h0l3.24-12.74h0l1.34-6.58c.74,3.32.54,5.54-.37,7.7h0c-1,7.5,2.22,14.49,2.6,21.82l.06,4c1.34,4.54-1,9.39.64,13.73,2.64,7.16,3.84,14.66,6.06,21.88,1.08,3.5,1.83,7.91,6.38,9.34.63-1.15-1-3,1.15-3.69,4.13-.29,7-1.85,6.91-6.6a3.45,3.45,0,0,1,1.05-2.66c.92-2.08-.29-5.18,2.93-6.17l1.09-3.81c-2-2.79-.59-4.57,1.82-6,3.7-11.11,5.54-22.67,8.37-34a1.59,1.59,0,0,1,.38-.26l2.43-1.68c2.18-1.62-.28-6.09,4.21-6.47,3.14-.26,6.21-1.22,9.56-1.92L716.65,334.2c1.83,1.76.84,3.54,0,5.31-.34,1.72.12,3.59-1,5.14h0l-5.11,16.62c.24,1.72,1.4,3.28.91,5.13l-1.49,4a2.06,2.06,0,0,1-.37,1c-.05,1.05.09,2.16-.89,2.94-.55,1.64-1,3.31-1.69,4.9-.34.81-.82,1.57.29,1.94.71.24,1.92.36,2-.67.76-5.88,7-9,7.46-15.12.14-1.76,1.83-3.4,2.81-5.1.12-.86.93-2,1.33-1.65,1.38,1.2.55,2.52-.42,3.67a2.11,2.11,0,0,0-.07,2.94l.08,0a.89.89,0,0,0,0,.1l.91-.17h0c-.13-1.44.6-2.08,2-2.11.38-1.56,1-2.77,3-2.18l7.27-19.57a8.44,8.44,0,0,1,1.66-4.11h0c.19-1-.06-2.21,1-3l.53-1.87a2.05,2.05,0,0,1,1.74-1.92c-.36-2.67,2.26-3.94,2.85-6.29,2.2-8.65,4.29-17.38,7.4-25.71,1.06-2.84.64-6.6,3-8.47,4.22-3.37,4.92-8,6-12.63C757.36,275.9,755.2,275.18,756.38,273.29ZM575.51,354.2a7,7,0,0,1-4.52,2,4,4,0,0,1,2.48-3c1.18-.73,2.48-2,3.66-.4C577.56,353.37,576.09,353.72,575.51,354.2Zm84.09-87.36q-3,13.69-6,27.39h0l-.2,3c-.46,3.63-.65,7.36-3.69,10h0c0,3.16-.27,6.25-2,9l-.35,4.72h0c0,1.4-.21,2.73-1.88,3.16l-1,2h0c.34,1.05.69,2.1,1,3.15.17.57.43,1.37-.31,1.55-.44.11-1.05-.47-1.59-.74,1.88,7.21,1.63,7.23-6,8.28-8.34,1.15-16.85,1.3-25,3.82-3.9,1.21-7.79.59-12-.34,1.14-3,2-6.14,3.95-8.81h0l.18-2.15h0l10-12.79a2.72,2.72,0,0,0,.71-.92,1,1,0,0,0-.71.92c-1.66-.41-2.51-1.15-1.18-2.81-.56-.28-1.43-.43-1.63-.87-.54-1.18.53-1.47,1.28-1.31,4.34.94,7.63-.9,10.63-3.73.39-.37,1.26-1.13,1.67-.43,3,5,5.12.58,7.26-.74,3.39-2.09,7.45-1.35,10.88-3h0c1.26-1.44,3.07-.55,4.56-1.06a4.75,4.75,0,0,0,3-2.63c1-2.11-.79-2.39-1.69-3.31l-2.65-.14a4.42,4.42,0,0,0-2.09-.39l2.09.39c-3.81,0-7.63,0-11.44.15-2.76.1-1.5-1.17-.9-2.28a89.18,89.18,0,0,0-17.1,2,142,142,0,0,1,7.39-20.35c.74-1.65,2.14-2.24,3.92-2.62,5.27-1.12,10.5-2.49,15.74-3.76,2.18-1.23,4.4-2.35,7-2.09-1-1.78,5,.64,1.54-2.61,1.55-.83,2.84-2.25,4.81-2.08C659.21,264.65,659.92,265.38,659.6,266.85Z" transform="translate(-195.03 -230.22)"/><path class="cls-1" d="M709.25,368.93a.79.79,0,0,1,.22.11v-.19A.43.43,0,0,0,709.25,368.93Z" transform="translate(-195.03 -230.22)"/><path class="cls-1" d="M250.57,375.28l.15.12-.13-.15Z" transform="translate(-195.03 -230.22)"/><path class="cls-1" d="M391.68,281.46h0l.85-2.22c0-4.28-1.68-8.17-3-12.13-.63-1.89-.89-3.54,1.84-3.18,2.11.28,3.1-.57,3.38-2.43.31-2.06-1.85-1.26-2.64-2.09-.39-.41-2,.14-1-1.26.2-.3.91-.27,1.39-.4h0l.07-1.5c-1.42-2.42-1.86-4.33,2-4,0,0,0-.07,0-.12h.06c-1.49-2.65-4.49-2-6.71-3-2-.94-5.19-.75-5.34-4a14.35,14.35,0,0,0-2.08-7c-1-1.55.07-2,.81-2.84h0c-1.29-.18-3,1.47-3.76-1l-2.9-.13c-1.35.75-2.71,1.55-4.06,0h0c-1.68,1.19-3.76,1.27-5.6,2.35a76.24,76.24,0,0,0-20.4,17.62c.63,2.51-1,3.83-2.69,5.12a87.45,87.45,0,0,0-12.15,19.91c-4.34,9.87-4.44,9.82-15.14,8.78-1.51,0-3.08.4-4.42-.69h0l-7.58-.31c-1.83,0-3.73.42-5.42-.7h0a57.71,57.71,0,0,1-12.17,0,5.57,5.57,0,0,1-5.82,0h0l-6.58-.31c-.8.09-1.79.23-1.89-.84s.87-1.58,1.72-2c4.1-6.72,10.83-10.07,17.31-13.9,11.5-6.81,24.09-10.59,36.8-14.17,0-1.05,0-2.14,1.08-2.8h0c.9-2.11,2.86-.89,4.29-1.29,4.25-1.21,8.72-1.87,11.57-5.83.13-.81,1.51-.87,1.16-2-2.83-2.19-.67-5.28-1.42-7.84-1.95-1.48-4-2.55-6.59-2.21-1.1.54-2.12,1.41-3.48.84l1.31-1.68-1.9-1c-2.31,1.87-6.24-.81-7.91,2.84h3.54c-.37,1.7-1.64,1.54-2.67,1.76l-3.93,1-8.87,2.3h0l-2.14,1.65c-15.8,5.37-30.58,12.93-45,21.18-.7,1.36.43,4.29-2.91,3.38a3.6,3.6,0,0,1-.07.84,4.08,4.08,0,0,1-3,3.82c-1,2.86-4.63,3.85-5.14,7.09-.22,1.68.62,3.54-.85,5h0c-.65,1.82-1,3.8-2,5.42-6,9.89,2.94,20.18,14.32,18.59,3.15-.44,6.33-1.76,9.65-1,3.88-1.74,8-.82,12-1,4.86,1.73,10.24-.27,15,2.1,2.79,2.25,6.15-.41,9,1,1.79-.15,3.57-.4,5.36-.41,2.73,0,3.07,1.33,1.71,3.43l-.23,4.85c.46,4.94-2.08,7.51-6.7,8.43-.56.88-2.11.21-2.38,1.54.59,1.71.6,3.23-1.29,4.17-1.1,1.71-2.35,3.22-4.48,3.67l-1.88,1.47a6.7,6.7,0,0,1-3.14,2.49.62.62,0,0,1-.74.31c-1.78,2.21-3.62,4.36-6.28,5.59h0l-4.33,4.31-7.68,6.9c-1.48,1.6-3.64,1.46-5.47,2.17-2.07,4-6.41,5.16-9.53,7.83h0a10.16,10.16,0,0,1-5,3.92h0l-3.88,3.44c-1.42,1.58-2.75,3.28-4.93,3.9L247.5,378h0l-8.85,7.57-3.12,4.41c-2.38,1.35-3.11,4.07-4.93,6-6,6.24-13,11.26-19,17.35.85,2-.15,3.17-1.89,4a16.55,16.55,0,0,1-6.15,5.8c-1.52,1.3-3.31,2.39-3.84,5.12,2.58-.61,4.35-2.91,6.85-1.9,5.28-4,10.36-8.41,17-10.38l-4.92,4.56-.1,1.85,1.87-.34c1.24-1.14,2.53-1.92,4.12-.58,5-4.06,9.8-8.37,15-12.14,17-12.31,33.06-25.74,49-39.37,7.15-6.11,14-12.59,21.95-17.76,2-1.7,3.85-3.51,5.92-5.06,1.27-1,2.37-3.13,4.26-2.1,2.17,1.18-1.08,2.81-.11,4.31,1,0,1.77-.21,2.15,1.24a12.06,12.06,0,0,0,4.83,7l6.11,2.77h0c6.76,2,13.16.05,19.33-2.28,13.25-5,21-16.09,27.61-27.56a86.06,86.06,0,0,0,11-39.07Zm-16,22.15c-2.75,10.65-6.48,21-14.81,28.8-5.29,5-11.46,8-19,5.89-1.78-.5-4.89.53-4.36-3.54.18-1.36-2.35.63-3.76-1.22,6.19-5.34,11.59-11.85,21-12.07-1.14-2.82-4.14-2.17-5.16-4.22h0l-1.64-.41,1.51-1.49a6,6,0,0,1-3.82-1.24c-1.34-.24-2.12-1.23-3-2.28,1.25-1.59,2.91,1.35,4-.36,2.92-3,6.68-3.85,10.66-4.11l1.26-1c-6.32-4.43-13.2-8.11-18.62-14.11l4.14-.22c-5.71-.63-3.52-3.22-2.05-6.36,2.53-6.51,7.52-12.58,16.32-18.18,3.16-1.75,5.62-2.54,7.72,1.51a45.83,45.83,0,0,0,5.22,7.27C377.89,284.59,378.15,294,375.67,303.62Z" transform="translate(-195.03 -230.22)"/><path class="cls-1" d="M469.44,363c.9-1,.42-3.69,3.09-2.58,3.45-4,2.91-9.35,4.91-13.92,3.38-7.7,6.58-15.5,9.71-23.31A221.61,221.61,0,0,0,496,295.39c1.46-5.75,6.22-9.66,7.31-15.49.65-3.48-.82-5.93-3-8s-4,0-5.85.79c-3,1.29-5.51,4.22-9.4,1.63-1.1-.73-3.19.1-3.72,2.26-.69,2.8-2.82,4.25-5.28,5.51-5.87,3-11.65,6.19-17.46,9.3l-.05,2.72h0c1.16.58,2.69-2.11,3.66.48s3,2.5,5.39,1.87c2.14-.58,4.82-2.63,6.46-.79s-1.09,4.11-1.58,6.28c-.55,2.41-1.28,4.77-2,7.14q-3.87,12.58-7.79,25.15c2,2.08,1,4.11-.11,6.13h0a.8.8,0,0,1-.28.85h0c0,.17,0,.33,0,.5,0,2.63.24,6.45-2.16,7-3.22.76-1.52-3.53-2.95-5.17-2.58-3-.77-7.08-2.49-10.32h0c-4.93-8.6-9.15-17.56-13.38-26.52-1.55-3.28-2.26-5.35,1.51-7.48,2.7-1.52,4.86-4,7.34-5.94a125.58,125.58,0,0,0,20.34-20.49c1.9-2.37,2.83-4.63,6.59-3.35s7.59.19,10.95-2.19c.53-.38,1.56,0,2.36-.05,6.38-.24,10.81-3.82,9.59-8.41-.84-3.16.69-3.47,2.7-4.49,5.63-2.86,12.44-3.51,16.74-8.87-1.18-1-2.42-2-.19-3.11,1.41-.72,2.87-1.33,4.31-2l5.92-3.24c.46-1.31,1.72-1.63,2.74-2.31,1.22-.82.71-1.4-.57-1.5-1.89,1.1-3.77,2.21-6.1,1.79l-2,.21c0,1.39-.57,2.09-2,2-1.19.48-2.56,1.67-3.06-.74h0c-4,1-7.82,2.57-11.63,4-8.38,3.07-17.57,4.51-24.58,10.75-.21.41-.33.94-.65,1.21-.76.62-1.12,2.31-2.5,1.32-.28-.2.32-1.64.52-2.51-.88-10.42-6-16.5-16.1-19.22a6.61,6.61,0,0,1-4.39-.66h0c-4.92,1-10,1.64-14.53,3.93-2.1,1.68-3.53,0-5.1-1h0c-4.09.29-9.12-.95-10.27,4.92-.67,3.41-3.18,4.67-5.57,6-7.72,4.35-15.15,9.11-21.65,15.16-1.85,1.72-4.92,3.66-3,6.52,2,3,5.52,4,9.23,3.05a23.18,23.18,0,0,0,2.26-.8c1.52-1.28,2.81-1.79,3.14.94l1.89-.81c.93-1.11,1.9-2.16,4-1.87a6.72,6.72,0,0,1-1.68,4c-4.39,11.92-8.83,23.82-13.15,35.77-2.16,6-5.41,11.61-6,18.1,1.1,1.05,1.34,2.09-.05,3.1-4.65,3.45-3.95,9-5.13,13.72-1.85,7.32-4.9,14.41-4.93,22.14l.89,1c.83-4.22,5.05-6.59,5.85-10.82.26-1.4,1.33-1.11,2.3-1.19,3.23-.26,5.63-1.26,5.2-5.31a2.78,2.78,0,0,1,1.76-2.64h0l1.15-3c0-2.17,2.38-1.53,3.29-2.67l-.48,3.62a5.42,5.42,0,0,1,.89,0c4.2-8.36,7.2-17.2,10.48-25.93,1.15-1.42,2.3-1.6,3.47,0,2.75,4.2,5.76,8.26,8.2,12.62a348.13,348.13,0,0,0,18.92,29.45c2.67-2.17,2.42.61,3.1,1.82l2.95.22c.24-1.73-.47-3.62.88-5.16.53-1-.84-3.06.33-2.88,2.35.35.55,2.54.83,3.9.27,2.39.71,4.81-1,6.93a15.57,15.57,0,0,1-2,7.24l-1.11,5.77c.24.8.05,1.84,1.17,2.17,1.18-4.57,5.91-7.05,6.78-11.93a15.57,15.57,0,0,1,4.92-9.25c1,2.49-1.22,4.06-.76,6h0a2.38,2.38,0,0,1,.79-.11C467.7,363,468.66,363.2,469.44,363Zm-56.93-35.89c-1.65,1.87-.59,4.37-1.91,6.37-1.17-2.59.25-4.9,1.18-7.26a3.22,3.22,0,0,1,1.47-2.74C413.86,324.95,414.1,326.22,412.51,327.13Zm20-41.08-2,.24h0l-3.07,1.9a15.52,15.52,0,0,1,3-8.07c2.68-6.74,2.32-14.28,5.78-20.88a10.33,10.33,0,0,1,4.6-4.82c6.75-3.55,14.16-5.1,21.38-7.27,1.42,2.94-.61,5.15-1.7,7.41-5.36,11.08-12.61,20.66-22.85,27.75C436.76,284.65,434.86,285.63,432.56,286.05Zm19.78,60.69c3.12.63,1.9,3.43,3.11,4.78A5.7,5.7,0,0,1,452.34,346.75Z" transform="translate(-195.03 -230.22)"/><path class="cls-1" d="M457.56,364.16a4.48,4.48,0,0,0-.31.59Z" transform="translate(-195.03 -230.22)"/><path class="cls-1" d="M778.53,234.91l-1,.35c-.19.73-.09,1.68-1.17,1.79s-1.73-.55-1.92-1.62c-7.45,4.4-16.08,5.61-24,8.66-10.18,3.91-19.5,7.67-22,19.74-.11.56-1.25.91-1.91,1.35a4,4,0,0,0-.24.46c-.28.81.23,1.6.33,2.4l1.92,1.31,3,.24,1-.31c1.27-.88,1.37,1.72,2.48,1.34a2.5,2.5,0,0,0,.51-.33c5.72-2.81,12-4,17.94-6.09.21-1-.34-2.29.84-3.06l-.09-2.8c-2.08-3,.4-3.22,2.31-3.79,5.45-3.37,12.41-4,16.9-9.13-1.38-.9-2.44-1.94-.32-3.08s4.3-2,6.46-3l3.87-2.39h0a1.92,1.92,0,0,1,.1-.75l-1.35-1.19Z" transform="translate(-195.03 -230.22)"/><path class="cls-1" d="M516.44,373.22l0,0,1.13-.33a5.89,5.89,0,0,1,1.74-1.64c6.5-5.52,12.79-11.3,19.9-16.05-1.57.27-3,1.56-4.7.93l-2.16,1.13c.76,2.45-1.61,2.69-2.7,3.83h0c-5.37,2.73-9.51,6.89-13.32,11.44a.8.8,0,0,0,0,.51A.63.63,0,0,0,516.44,373.22Z" transform="translate(-195.03 -230.22)"/><path class="cls-1" d="M457,336.78c-.32,3.33,1.6,5.9,2.49,9,1.81-1.25,1.22-3.59,2.83-4.6h0l-.95-1.21c-2.51.6-2.65-1.16-2.83-2.86h0a.58.58,0,0,0,.07-.52,2.63,2.63,0,0,1-1.7-3.1l-2.17-.28C456,334.09,457.13,335.15,457,336.78Z" transform="translate(-195.03 -230.22)"/><path class="cls-1" d="M215.27,423.26a6.44,6.44,0,0,1,2.63-2.47,2.92,2.92,0,0,1,0-.46,3.81,3.81,0,0,1,1.42-1.79c-4.44,1.5-7,7.26-12.83,7.7-.41,3.4,2.57,2.19,4.07,3C210.11,425.64,214.84,426.13,215.27,423.26Z" transform="translate(-195.03 -230.22)"/><path class="cls-1" d="M485,417.86c-4.64,2.14-7.53,7.68-13.51,8.41-.58,1.14-.6,2,1,2,.73-1.1,1.87-1,3-1.06h0l2-1c1.23-.87,1.88-2.91,4-2h0l1-3C481.94,419,484.7,419,485,417.86Z" transform="translate(-195.03 -230.22)"/><path class="cls-1" d="M316.66,348.6c-1.78,1.56-3.52,3.4-6.18,3.48,1.56,2.19,3.16,3.28,5.26.5a11.51,11.51,0,0,1,4.82-3.35h0C319.46,347.77,318.41,347.07,316.66,348.6Z" transform="translate(-195.03 -230.22)"/><path class="cls-1" d="M644.53,364.23a4,4,0,0,0,1.14-3.39,2,2,0,0,0-1.11-.44c-3,.21-2.58,4.34-5.24,4.9l-.49,2.93h0c.89,1.12.81,3.9,3.45,2l.33-1.86C643.71,367.21,641.2,364.38,644.53,364.23Z" transform="translate(-195.03 -230.22)"/><path class="cls-1" d="M639.19,365.34a2.41,2.41,0,0,1-.36.08,2,2,0,0,1-.71-2.37c-1.71,3.84-3,7.79-2.63,12.11.22,1-.15,2.28,1,3l2.37-10h0C637.67,367.06,638.35,366.19,639.19,365.34Z" transform="translate(-195.03 -230.22)"/><path class="cls-1" d="M639.33,365.31l0-.13-.16.16Z" transform="translate(-195.03 -230.22)"/><path class="cls-1" d="M277.12,353.78a4.6,4.6,0,0,0,1.32-.88,23,23,0,0,1,8.73-5.67l-1.72,0c-1.22.74-2.25,2.06-4,1.3h0L273.53,353C274.91,352.3,276,353.17,277.12,353.78Z" transform="translate(-195.03 -230.22)"/><path class="cls-1" d="M263.92,363.26c2.79-2.91,6.54-4.58,9.45-7.34-1.33-.56-2.33.68-3.47,1.13h0l-2.64.37c.56,2.94-1.8,3.1-3.61,3.79l-1.14,1.07,1.24,1.17C263.81,363.38,263.87,363.32,263.92,363.26Z" transform="translate(-195.03 -230.22)"/><path class="cls-1" d="M297.77,337.33c-6.84.25-8.74,1.43-9.71,6.08,1.21.26,1.93-3.09,3.43-.49h0C292.54,339.88,295.11,338.56,297.77,337.33Z" transform="translate(-195.03 -230.22)"/><path class="cls-1" d="M552.81,305.24c-1,0-1.94,0-2.91,0a16,16,0,0,1-3.56,0,20,20,0,0,0-2.25.22,6.26,6.26,0,0,1-1.52.38c8.3,1.14,16.63-.08,24.94.26C562.65,305.21,557.67,306.27,552.81,305.24Z" transform="translate(-195.03 -230.22)"/><path class="cls-1" d="M395.91,254.13a1.38,1.38,0,0,1-1.43-1.49c-.56,1.15-1.72,2-1.42,3.54,0,0,0,.08,0,.12a4.28,4.28,0,0,1,3.48,1.94c.15.06.3.18.44.17s.37-.15.37-.24c0-1.56-.52-3.07,1.32-4.32,1-.66.89-2.19-1.14-1.6A1.62,1.62,0,0,1,395.91,254.13Z" transform="translate(-195.03 -230.22)"/><path class="cls-1" d="M287.39,305.72a17.77,17.77,0,0,0-2.93-.41c-.32,0-.65,0-1,0-1.06,0-2.13,0-3.2,0a3.68,3.68,0,0,0-1.59.78h0l5.83.38c2.38,0,4.77-.15,7.15-.27A28.85,28.85,0,0,1,287.39,305.72Z" transform="translate(-195.03 -230.22)"/><path class="cls-1" d="M300.54,306.38l2,0c-1.2-.1-2.41-.14-3.62-.14C299.44,306.25,300,306.3,300.54,306.38Z" transform="translate(-195.03 -230.22)"/><path class="cls-1" d="M456,367.24a7.59,7.59,0,0,1,.24-2.83,11.57,11.57,0,0,0,1.39-6.82c0-.06.09-.16,0-.22-.21,1.45.32,3-.85,4.21a3.07,3.07,0,0,1-.41.24,6.63,6.63,0,0,1-2.13,3.4c1.79.37-2.54,3.46,1.3,2.92h0Z" transform="translate(-195.03 -230.22)"/><path class="cls-1" d="M318.38,315.25l-6.7,8.43C315.22,321.91,317.2,318.9,318.38,315.25Z" transform="translate(-195.03 -230.22)"/><path class="cls-1" d="M688,286c.14,1.94-.24,3.93,0,5.87a2.69,2.69,0,0,0,.25.43l.12,0c.8-2.61-.84-5.52,1-8,.11-2.08.47-4.2-.84-6.08C689.41,280.89,687.9,283.41,688,286Z" transform="translate(-195.03 -230.22)"/><path class="cls-1" d="M273.58,355.73l.31-.29a6.11,6.11,0,0,1,2-1.13,6.83,6.83,0,0,1-2.35-1.31c-1.07,1.48-4.16,1.14-3.63,4.05C271,355.76,271.93,353.8,273.58,355.73Z" transform="translate(-195.03 -230.22)"/><path class="cls-1" d="M277.12,353.78c-.41.19-.83.36-1.25.53a5.35,5.35,0,0,0,3.61-.17A2.72,2.72,0,0,1,277.12,353.78Z" transform="translate(-195.03 -230.22)"/><path class="cls-1" d="M273.38,355.92a2.57,2.57,0,0,1,.64.39,6.23,6.23,0,0,0-.44-.58Z" transform="translate(-195.03 -230.22)"/><path class="cls-1" d="M775.2,242.6c-1.3.34-2.55,1-1.76,2.84,1.63-2.59,5.33-1.74,7-4.22h0l-.47-1A24.29,24.29,0,0,1,775.2,242.6Z" transform="translate(-195.03 -230.22)"/><path class="cls-1" d="M263.51,363.72a3.66,3.66,0,0,1-1-1.44,2.88,2.88,0,0,1-2.08,1.79c-4.17.49-2,2.36-.91,4h0C260.05,365.88,262.15,365.14,263.51,363.72Z" transform="translate(-195.03 -230.22)"/><path class="cls-1" d="M263.75,363.45l-.24.27a1.91,1.91,0,0,0,1,.43h0Z" transform="translate(-195.03 -230.22)"/><path class="cls-1" d="M208.67,416.77l-1.14-.51a5.6,5.6,0,0,1-3.18,2.9c-2.51.81-1.65,2.33-.84,3.85C204.29,420.15,207.39,419.21,208.67,416.77Z" transform="translate(-195.03 -230.22)"/><path class="cls-1" d="M655.74,345.33h-.16c0,.09,0,.19,0,.28-.85,3.14-.9,6.68-4.29,8.55,2.4-.18,4.35-.87,4.22-3.84l.22-5Z" transform="translate(-195.03 -230.22)"/><path class="cls-1" d="M525,240.88l-.74.42c-1.32,1.73-5.14.5-4.85,4.12,2.1-2,5.44-1.84,7.27-4.26C526.28,240.62,525.65,240.79,525,240.88Z" transform="translate(-195.03 -230.22)"/><path class="cls-1" d="M689.82,301l-.19.06,0,.77c.25,1.07.57,2.14.88,3.2.32,1.32-.66,3.49,2.1,3.21-1.7-2.11-.11-5.21-2.15-7.22l-.42.05Z" transform="translate(-195.03 -230.22)"/><path class="cls-1" d="M720.65,276.87a3.75,3.75,0,0,1,1.76-2.3c.59-1.72.5-3.29-1-4.57.18,2.79-1,5.16-2.11,7.58A1.32,1.32,0,0,1,720.65,276.87Z" transform="translate(-195.03 -230.22)"/><path class="cls-1" d="M284.54,306.45a31,31,0,0,0,16-.07h0A81.11,81.11,0,0,1,284.54,306.45Z" transform="translate(-195.03 -230.22)"/><path class="cls-1" d="M298.89,306.21a55.08,55.08,0,0,0-7.2,0C294.08,306.29,296.49,306.19,298.89,306.21Z" transform="translate(-195.03 -230.22)"/><path class="cls-1" d="M782.46,234.33a4.05,4.05,0,0,1,.5.32l2.6-1.4c-2.71-1-5.76-3.44-7,1.66A4.69,4.69,0,0,1,782.46,234.33Z" transform="translate(-195.03 -230.22)"/><path class="cls-1" d="M482.81,421.63c.33,1.12-.59,1.82-1.26,2.61,2.07-2.51,6.47.89,7.94-3.14C487.36,422.66,485.08,422.12,482.81,421.63Z" transform="translate(-195.03 -230.22)"/><path class="cls-1" d="M482.65,421.59l.15,0a2.34,2.34,0,0,0-.22-.5l0,.09A2.58,2.58,0,0,0,482.65,421.59Z" transform="translate(-195.03 -230.22)"/><path class="cls-1" d="M539.86,354.84l.63-.42c1.3-.54,2.75,1.07,4-.28-3.66-1-7.31-2-9.93,2C536.38,356.08,537.85,353.73,539.86,354.84Z" transform="translate(-195.03 -230.22)"/><path class="cls-1" d="M539.26,355.25a2.81,2.81,0,0,1,1.21,0,3.43,3.43,0,0,0-.61-.43Z" transform="translate(-195.03 -230.22)"/><path class="cls-1" d="M473.86,416.5c1.12-1.52,3.27-2.17,3.64-4.33-1.75,1.23-4.23,1.56-5,4l1.13.52C473.74,416.65,473.81,416.59,473.86,416.5Z" transform="translate(-195.03 -230.22)"/><path class="cls-1" d="M635.5,375.16a20.51,20.51,0,0,0-2,8.08h2.05l.89-5.05C634.07,377.85,635.19,376.38,635.5,375.16Z" transform="translate(-195.03 -230.22)"/><path class="cls-1" d="M215.68,424.48c-1.32,2-3.75,2.79-5.09,4.75,2.31-.92,4.71-1.72,5.86-4.25A.91.91,0,0,1,215.68,424.48Z" transform="translate(-195.03 -230.22)"/><path class="cls-1" d="M727.57,241.32c-1.12-1.23-.7-4.38-3.85-3.1C725.33,238.84,725.27,241.55,727.57,241.32Z" transform="translate(-195.03 -230.22)"/><path class="cls-1" d="M643.89,368.45c0,.15-.1.3-.14.45a2.22,2.22,0,0,1-1.47,1.34c.2,1.44,0,3,1.82,3.85a14.18,14.18,0,0,0,.81-2.16c.23-1.12.3-2.27.44-3.4h0Z" transform="translate(-195.03 -230.22)"/><path class="cls-1" d="M715.74,339.48a8.43,8.43,0,0,0,.91-5.28c-.91,2.28-4.24,4.16-1.14,7.08C715.88,340.87,715.16,339.75,715.74,339.48Z" transform="translate(-195.03 -230.22)"/><path class="cls-1" d="M261.4,266a4.66,4.66,0,0,1,.77-1l-.54-.69h0c-2.74.26-4.75,2-7.56,3.65l3.47.32a7.33,7.33,0,0,1,3.69-1.94Z" transform="translate(-195.03 -230.22)"/><path class="cls-1" d="M306.75,328.78a2.28,2.28,0,0,1-1.13-1.74h0c-1.91,0-1.85,2.1-3.08,2.81,1,.18,2-.94,3.06-.2,0,1.49-1.58,1.38-2.17,2.26l.11,1.15c.74-1.64,2.29-2.68,3.16-4.23Z" transform="translate(-195.03 -230.22)"/><path class="cls-1" d="M392.54,282.83a26.87,26.87,0,0,1-.93,8.45,18.26,18.26,0,0,0,1.73-7.18.62.62,0,0,1-.32-.5Z" transform="translate(-195.03 -230.22)"/><path class="cls-1" d="M626.84,352.25h-.21l-.07.69a.52.52,0,0,1,.16.16.85.85,0,0,1-.23,1.11c1.68-.68,4.22,1.68,5.08-.75.69-1.95-2.41-.68-3-2.05A2.1,2.1,0,0,1,626.84,352.25Z" transform="translate(-195.03 -230.22)"/><path class="cls-1" d="M257.54,268.26l2,1.89a12.61,12.61,0,0,1,1-2.47A5.59,5.59,0,0,1,257.54,268.26Z" transform="translate(-195.03 -230.22)"/><path class="cls-1" d="M261.24,266.32c-.22.46-.45.91-.68,1.37a7.68,7.68,0,0,0,1.95-1.36A4.5,4.5,0,0,0,261.24,266.32Z" transform="translate(-195.03 -230.22)"/><path class="cls-1" d="M388.5,364.17c-1.14,2.17-1.77,4.43-1.38,8.4,1.55-3.24,2.62-5.07,2.27-7.38C388.55,365.33,388,365.24,388.5,364.17Z" transform="translate(-195.03 -230.22)"/><path class="cls-1" d="M525.55,235.07c1.75-1.57,4.06-1.23,6.1-1.79C529,231.94,526.4,230.45,525.55,235.07Z" transform="translate(-195.03 -230.22)"/><path class="cls-1" d="M238.66,385.53c-.75-1.11-1.69-1.53-2.79-.52-1.63,1.51-.76,3.25-.34,4.93C236.39,388.34,235.44,385.46,238.66,385.53Z" transform="translate(-195.03 -230.22)"/><path class="cls-1" d="M341.45,256.52c-3.75,1.56-.48,2,.38,2.83,0-2.18,2-3.28,2.69-5.12A15.55,15.55,0,0,1,341.45,256.52Z" transform="translate(-195.03 -230.22)"/><path class="cls-1" d="M275.5,305.27c.86,1.11,2,1,3.2.8h0a2.87,2.87,0,0,1,.19-.74C277.76,305.35,276.63,305.36,275.5,305.27Z" transform="translate(-195.03 -230.22)"/><path class="cls-1" d="M282.17,304.8c-1,.25-2.66-.91-3.27.53l1.39,0a11.17,11.17,0,0,1,3.2,0l1,0a4.16,4.16,0,0,0,3-1.05C285.79,305.23,283.89,304.37,282.17,304.8Z" transform="translate(-195.03 -230.22)"/><path class="cls-1" d="M579.31,369.57l-.47,1.68,3.59-2h0C581.25,367.27,580.35,369.52,579.31,369.57Z" transform="translate(-195.03 -230.22)"/><path class="cls-1" d="M646.14,361.14a10.93,10.93,0,0,1-.27,2.8,15.76,15.76,0,0,0-1,1.86,10.47,10.47,0,0,1,.71,1.07h0l2-5.62A1.38,1.38,0,0,1,646.14,361.14Z" transform="translate(-195.03 -230.22)"/><path class="cls-1" d="M646.14,361.14a5.66,5.66,0,0,0-.54-2.24c0,.64.06,1.3.08,1.94Z" transform="translate(-195.03 -230.22)"/><path class="cls-1" d="M683.88,256.94c.07,1,.13,2,.18,2.95a2,2,0,0,0,0,.26,1.75,1.75,0,0,0,1.42-.75h0l0-3.2h-1.58A3.21,3.21,0,0,0,683.88,256.94Z" transform="translate(-195.03 -230.22)"/><path class="cls-1" d="M708.61,370.95c.21-.66.38-1.32.56-2-.6.47-.25,2.4-1.88,1.29-2.75,2.48.9,2.73,1.42,4.06A9.76,9.76,0,0,1,708.61,370.95Z" transform="translate(-195.03 -230.22)"/><path class="cls-1" d="M301.65,334.53c-1.49-1.54-3.14-.61-5.24-.56l2.1,3.06A3.5,3.5,0,0,1,301.65,334.53Z" transform="translate(-195.03 -230.22)"/><path class="cls-1" d="M709.31,368.07h0a3.3,3.3,0,0,1,.46-1.33c.08-.32.16-.64.25-1,.74-1.44-.49-3.11.52-4.52a13.15,13.15,0,0,0-2.09,5.92l.86.89Z" transform="translate(-195.03 -230.22)"/><path class="cls-1" d="M209,416.37a20,20,0,0,0,2.54-3.1c-2.2-.15-3.2,1.3-4,3A1.31,1.31,0,0,1,209,416.37Z" transform="translate(-195.03 -230.22)"/><path class="cls-1" d="M209,416.37c-.11.13-.23.26-.33.39v0l1,.44A2.35,2.35,0,0,0,209,416.37Z" transform="translate(-195.03 -230.22)"/><path class="cls-1" d="M697.54,355.25c3.55-.84,2.89-3.67,2.93-6.17C699.12,351,699.6,353.7,697.54,355.25Z" transform="translate(-195.03 -230.22)"/><path class="cls-1" d="M339.93,232.18a4.52,4.52,0,0,1,3.23,3.21c1.39-2.08-.82-2.84-1.53-4.15A2.12,2.12,0,0,1,339.93,232.18Z" transform="translate(-195.03 -230.22)"/><path class="cls-1" d="M407.66,343.42a2.63,2.63,0,0,0-.6-.69c-.05.11-.1.22-.15.34a3.81,3.81,0,0,1-2.41,2.16h0c1.3.27.95,2.93,3,2.07l.14-3.88Z" transform="translate(-195.03 -230.22)"/><path class="cls-1" d="M703.37,339.23a16.14,16.14,0,0,0-1.82,6C703.6,343.69,703.48,341.46,703.37,339.23Z" transform="translate(-195.03 -230.22)"/><path class="cls-1" d="M570.29,329.9a2.18,2.18,0,0,0,.25-.15l0-.59h0c-1.63-.06-3.29.06-3.73,2-.25,1.07,1,.88,1.69,1.13A3.27,3.27,0,0,1,570.29,329.9Z" transform="translate(-195.03 -230.22)"/><path class="cls-1" d="M526.29,240.17a1.61,1.61,0,0,1,.43,1c1.53-.94,2.79-2.08,2.76-4.08A7.43,7.43,0,0,1,526.29,240.17Z" transform="translate(-195.03 -230.22)"/><path class="cls-1" d="M525,240.88l1.26-.71c-.73-.62-2,1-2.73.15C523.92,241,524.47,241,525,240.88Z" transform="translate(-195.03 -230.22)"/><path class="cls-1" d="M316.76,307.72c-1.74-.11-3.53.44-5.22-.33.58,2.2,2.16.74,3.27.83,1.66.14,3.45-.15,3.79,2.19C319.57,308.42,318.61,307.83,316.76,307.72Z" transform="translate(-195.03 -230.22)"/><path class="cls-1" d="M530.57,262.39a19,19,0,0,0-6,3.11l.14,1.1c1.7-.07,2.93-1.93,4.82-1.28C528.73,263.94,530.29,263.4,530.57,262.39Z" transform="translate(-195.03 -230.22)"/><path class="cls-1" d="M688.78,292.22a2.55,2.55,0,0,1-.36.08c0,.06,0,.12,0,.17l.06,1a6.21,6.21,0,0,0,.28.67,4.73,4.73,0,0,1,.28.59c.86-1.42,0-3.18.64-4.65l.08-3.82-.33-1.94C688.6,286.89,690.6,289.7,688.78,292.22Z" transform="translate(-195.03 -230.22)"/><path class="cls-1" d="M464.5,372.22l.65-1.09c.94-.82-.12-3.35,2.4-2.84l.65-.92-2.55-1.06c-.66,2-2.57,3.46-2.08,5.82A1.62,1.62,0,0,0,464.5,372.22Z" transform="translate(-195.03 -230.22)"/><path class="cls-1" d="M601.4,232.11a6.4,6.4,0,0,1,3.57.34l.59,0,1.08-1.22c-2-1.61-4.06-1.15-6.06.08a3.37,3.37,0,0,0,0,.65A2.8,2.8,0,0,0,601.4,232.11Z" transform="translate(-195.03 -230.22)"/><path class="cls-1" d="M335.33,232.24l.92.07.2-.14a1.3,1.3,0,0,1,.18-.27c1.56-1,3.32-.53,5-.66-2-1.62-4-.41-6,.11a1.73,1.73,0,0,1-.28.83Z" transform="translate(-195.03 -230.22)"/><path class="cls-1" d="M336.59,232.34c1-.55,2.23-.08,3.34-.16a7.5,7.5,0,0,0-2.78-.12.62.62,0,0,0-.7.11,1,1,0,0,0-.05.16Z" transform="translate(-195.03 -230.22)"/><path class="cls-1" d="M455.21,362.16a3.76,3.76,0,0,1-1.17-.07,2.61,2.61,0,0,1-.84-.47l-.69.93c-1.39,2.13,1,1.9,1.7,2.67A3,3,0,0,1,455.21,362.16Z" transform="translate(-195.03 -230.22)"/><path class="cls-1" d="M456.33,361.82c.05-.15.11-.29.15-.44a5.27,5.27,0,0,0-1.28.78A2.94,2.94,0,0,0,456.33,361.82Z" transform="translate(-195.03 -230.22)"/><path class="cls-1" d="M503.74,385.32c-4.86-1.14-4,1.75-3.21,4.57C501,387.92,501.26,385.85,503.74,385.32Z" transform="translate(-195.03 -230.22)"/><path class="cls-1" d="M470.27,420.28a15.12,15.12,0,0,0,3-3,4.17,4.17,0,0,1-.71-1,6.12,6.12,0,0,1-3,3l.59,1.18C470.17,420.37,470.21,420.32,470.27,420.28Z" transform="translate(-195.03 -230.22)"/><path class="cls-1" d="M473.68,416.73c-.13.19-.28.35-.42.53.35.32.8.41,1.49,0h0Z" transform="translate(-195.03 -230.22)"/><path class="cls-1" d="M216.15,423.88a11.3,11.3,0,0,0,.3,1.11c.35-1.17,2.34-1.08,2.09-2.72a1.88,1.88,0,0,1-.58-1A12.24,12.24,0,0,1,216.15,423.88Z" transform="translate(-195.03 -230.22)"/><path class="cls-1" d="M218,421.26a4.43,4.43,0,0,1,.69-.84c-.26.11-.5.25-.74.38A2.2,2.2,0,0,0,218,421.26Z" transform="translate(-195.03 -230.22)"/><path class="cls-1" d="M215.27,423.26c.21.36.22.85.41,1.22.08-.13.18-.24.25-.38a3.07,3.07,0,0,0,.22-.22A.89.89,0,0,0,215.27,423.26Z" transform="translate(-195.03 -230.22)"/><path class="cls-1" d="M415.52,269.23l2.28,2.11C417.42,270.23,417.64,268.47,415.52,269.23Z" transform="translate(-195.03 -230.22)"/><path class="cls-1" d="M454.49,377.18c-1.66,1.63-1,3.76-1.72,6.16,2.08-1.14,3-2.23,2.89-4C453.79,379.42,453.9,378.43,454.49,377.18Z" transform="translate(-195.03 -230.22)"/><path class="cls-1" d="M684.46,260.9c.5.4,1.36.19,2,.41.15-.85.27-1.69-.91-1.91h0C685.3,260.45,684.92,260.86,684.46,260.9Z" transform="translate(-195.03 -230.22)"/><path class="cls-1" d="M684.46,260.9a1.11,1.11,0,0,1-.36-.75c-.44,0-.91,0-1.36-.05A2.89,2.89,0,0,0,684.46,260.9Z" transform="translate(-195.03 -230.22)"/><path class="cls-1" d="M571.53,362.58c-.1,3.58.53,3.82,5,1.89C574.43,365,572.42,365.26,571.53,362.58Z" transform="translate(-195.03 -230.22)"/><path class="cls-1" d="M255.65,371.5c-1.65-2.15-2.14.48-3.2.77l-1,1.65A17.87,17.87,0,0,1,255.65,371.5Z" transform="translate(-195.03 -230.22)"/><path class="cls-1" d="M722.63,265.27c2.34-1.09,3.62-2.54,1.74-5.07C724.82,262.24,723.84,263.79,722.63,265.27Z" transform="translate(-195.03 -230.22)"/><path class="cls-1" d="M713.53,246.22l-1.94.14-.54,1.8A8.46,8.46,0,0,0,713.53,246.22Z" transform="translate(-195.03 -230.22)"/><path class="cls-1" d="M307.27,328.33a13.07,13.07,0,0,0,2-3.11c-1.57-.07-2,2.08-3.68,1.83C306,327.66,306.71,327.91,307.27,328.33Z" transform="translate(-195.03 -230.22)"/><path class="cls-1" d="M307.27,328.33a4.13,4.13,0,0,1-.52.45,6.21,6.21,0,0,0,1.26.61A1.74,1.74,0,0,0,307.27,328.33Z" transform="translate(-195.03 -230.22)"/><path class="cls-1" d="M639.53,348c-1.78.51-3.65.81-5.08,2.13C636.3,349.77,638.31,349.83,639.53,348Z" transform="translate(-195.03 -230.22)"/><path class="cls-1" d="M262.69,264.64a9.05,9.05,0,0,0,2.79-2.52,4.6,4.6,0,0,0-3.84,2.17h0C262.29,264.17,262.6,264.32,262.69,264.64Z" transform="translate(-195.03 -230.22)"/><path class="cls-1" d="M262.69,264.64l-.5.32,0,0,.4.51A1.35,1.35,0,0,0,262.69,264.64Z" transform="translate(-195.03 -230.22)"/><path class="cls-1" d="M756.38,273.29c.46,1.32,1.92,2.28,1.39,3.95C761.2,274.55,757.38,274.42,756.38,273.29Z" transform="translate(-195.03 -230.22)"/><path class="cls-1" d="M671.7,296.3h0l1,1.12h0a49.94,49.94,0,0,1,.54-5.57C672.9,293.38,672.89,295.09,671.7,296.3Z" transform="translate(-195.03 -230.22)"/><path class="cls-1" d="M605.75,232.79c.15.07.31.13.46.21,1.57.65,2,2,2.21,3.51,1.35-2.41-.65-3.69-1.78-5.26A1.26,1.26,0,0,1,605.75,232.79Z" transform="translate(-195.03 -230.22)"/><path class="cls-1" d="M605.75,232.79l-.19-.09v.17Z" transform="translate(-195.03 -230.22)"/><path class="cls-1" d="M577.3,370.24c-2,.41-1.2,1.88-1,3,.08.33,1.08.73,1.55.63.85-.19,1.43-.79.49-1.67C577.25,372,577.49,371,577.3,370.24Z" transform="translate(-195.03 -230.22)"/><path class="cls-1" d="M299.21,332.38l4.21-.47c-.24-.71-1-1.2-.89-2.06Z" transform="translate(-195.03 -230.22)"/><path class="cls-1" d="M327.54,357.42c.59,4.12,3.57,3,6.11,2.77h0C331.54,359.41,328.72,360.24,327.54,357.42Z" transform="translate(-195.03 -230.22)"/><path class="cls-1" d="M469.44,363c2.5.9,2.57-1.11,3.09-2.58C470.93,360.61,470.8,362.56,469.44,363Z" transform="translate(-195.03 -230.22)"/><path class="cls-1" d="M644.13,367.67a1.7,1.7,0,0,1,1.22.85l.23-1.64h0a3.27,3.27,0,0,1-1-.42Q644.34,367.06,644.13,367.67Z" transform="translate(-195.03 -230.22)"/><path class="cls-1" d="M642.62,368.38l1.28.06c.08-.26.15-.52.24-.78A2.09,2.09,0,0,0,642.62,368.38Z" transform="translate(-195.03 -230.22)"/><path class="cls-1" d="M644.53,364.23c-.72,1-.64,1.76.06,2.23.09-.22.19-.44.29-.65A1.83,1.83,0,0,1,644.53,364.23Z" transform="translate(-195.03 -230.22)"/><path class="cls-1" d="M717.75,374.47c.25.24,1.37,0,1.77-.42,1.51-1.42-.6-1.8-.9-2.72l-.16-.17C717.7,372.17,716.32,373.11,717.75,374.47Z" transform="translate(-195.03 -230.22)"/><path class="cls-1" d="M469.73,420.76a1.17,1.17,0,0,1-.2-1.53c-2.78.54-1.9,2.12-1,3.68A8.18,8.18,0,0,1,469.73,420.76Z" transform="translate(-195.03 -230.22)"/><path class="cls-1" d="M469.73,420.76a2.76,2.76,0,0,0,.82.52h0l-.43-.87A3.24,3.24,0,0,0,469.73,420.76Z" transform="translate(-195.03 -230.22)"/><path class="cls-1" d="M220.41,421.93c1.64,1.67,3.1,2.11,4.12-.58A5.59,5.59,0,0,1,220.41,421.93Z" transform="translate(-195.03 -230.22)"/><path class="cls-1" d="M481.54,424.25c-1.53.27-2.43,1.81-4,2C479.47,426.79,481.68,427.9,481.54,424.25Z" transform="translate(-195.03 -230.22)"/><path class="cls-1" d="M673.54,240.89c-.15-.87.14-2.29-1.18-2.15-1.78.18-2.55,1.65-2.83,3.34C670.67,241,671.43,238.65,673.54,240.89Z" transform="translate(-195.03 -230.22)"/><path class="cls-1" d="M285.44,347.21c-2.26-2.42-3.2-.82-4,1.3h0C282.7,347.78,283.84,346.8,285.44,347.21Z" transform="translate(-195.03 -230.22)"/><path class="cls-1" d="M780.48,240a1,1,0,0,1,0,1.24h0c1.74-.88,3-2.06,3-4.21A5.65,5.65,0,0,1,780.48,240Z" transform="translate(-195.03 -230.22)"/><path class="cls-1" d="M780.07,240.21l.41-.23a2.23,2.23,0,0,0-.91-.58l.42.86Z" transform="translate(-195.03 -230.22)"/><path class="cls-1" d="M688.48,271.38c-.59-2.35,1.5-5-.75-7.15C688.64,266.55,687.36,269.09,688.48,271.38Z" transform="translate(-195.03 -230.22)"/><path class="cls-1" d="M482.27,251.21a2.09,2.09,0,0,0-2.63,0C480.52,252.14,481.4,251.6,482.27,251.21Z" transform="translate(-195.03 -230.22)"/><path class="cls-1" d="M516.09,373.79l.15,0,.22-.48h0s0,0,0,0a.6.6,0,0,1-.06-.13.58.58,0,0,1,0-.51c-1.77.55-3.37,1.23-3,3.58C514.47,375.55,514.69,374,516.09,373.79Z" transform="translate(-195.03 -230.22)"/><path class="cls-1" d="M550.67,348.31c-2.45-.7-3.94-.28-3.21,2.75A4.25,4.25,0,0,1,550.67,348.31Z" transform="translate(-195.03 -230.22)"/><path class="cls-1" d="M462.68,334.19c-1.62,2,.45,4.1-.11,6.13h0C463.79,338.3,462.46,336.23,462.68,334.19Z" transform="translate(-195.03 -230.22)"/><path class="cls-1" d="M267.26,357.42c-2.67-.13-2.29,2.63-3.61,3.79A12.09,12.09,0,0,0,267.26,357.42Z" transform="translate(-195.03 -230.22)"/><path class="cls-1" d="M253.16,270.82c.62.08,1-.25,1-.82a1.91,1.91,0,0,0-1.23-1.93c-.24-.06-.88.52-1,.89C251.74,269.9,252.3,270.5,253.16,270.82Z" transform="translate(-195.03 -230.22)"/><path class="cls-1" d="M723.42,363c2.24,1,2.48-.78,3-2.18h0C725,361,724.6,362.52,723.42,363Z" transform="translate(-195.03 -230.22)"/><path class="cls-1" d="M685.49,256.2c.06-.84,0-1.61-1-2h0c-.17.45-.36.9-.49,1.37A2.92,2.92,0,0,1,685.49,256.2Z" transform="translate(-195.03 -230.22)"/><path class="cls-1" d="M684.05,255.6a2.23,2.23,0,0,0-1.74.61h1.6A4.56,4.56,0,0,1,684.05,255.6Z" transform="translate(-195.03 -230.22)"/><path class="cls-1" d="M756.54,254.57a6.16,6.16,0,0,0-2.31,3.79A5.28,5.28,0,0,0,756.54,254.57Z" transform="translate(-195.03 -230.22)"/><path class="cls-1" d="M719.5,368.38l-1,2.78.16.17c2.24.21,2.75-1.34,3.09-3.05l-2.21.11Z" transform="translate(-195.03 -230.22)"/><path class="cls-1" d="M589.63,234.21c-.78,1.21-3.84-.17-3.12,2.75C587.18,235.62,589.27,235.89,589.63,234.21Z" transform="translate(-195.03 -230.22)"/><path class="cls-1" d="M453,361.45c-.82-.74-1.39-1.81-2.55-2.11a4,4,0,0,0,2.07,3.21A1.26,1.26,0,0,1,453,361.45Z" transform="translate(-195.03 -230.22)"/><path class="cls-1" d="M453.2,361.62l.34-.46a1.7,1.7,0,0,0-.55.29Z" transform="translate(-195.03 -230.22)"/><path class="cls-1" d="M456,367.64a3,3,0,0,1-.49.5l.1,3.27A7.79,7.79,0,0,0,456,367.64Z" transform="translate(-195.03 -230.22)"/><path class="cls-1" d="M456,367.64a12.52,12.52,0,0,0,1.27-2.88L456,367.24Z" transform="translate(-195.03 -230.22)"/><path class="cls-1" d="M460.8,429.46c-.2.23-.69.51-.74.87a1.2,1.2,0,0,0,1,1.4,1,1,0,0,0,1.2-1.08C462.26,429.92,461.74,429.54,460.8,429.46Z" transform="translate(-195.03 -230.22)"/><path class="cls-1" d="M196.14,429.48a1,1,0,0,0-1.08,1.2c.13.7.68,1.05,1.6,1.09.18-.28.58-.63.61-1A1.13,1.13,0,0,0,196.14,429.48Z" transform="translate(-195.03 -230.22)"/><path class="cls-1" d="M472.55,428.27c.51.78,1,1.84,2.13,1.43s.75-1.58.85-2.48h0A3,3,0,0,1,472.55,428.27Z" transform="translate(-195.03 -230.22)"/><path class="cls-1" d="M600.35,231.93a1,1,0,0,1,.22-.6c-1.1-1.32-2.14-1.24-3.13.14C598.51,231.06,599.41,231.62,600.35,231.93Z" transform="translate(-195.03 -230.22)"/><path class="cls-1" d="M600.55,232l-.2-.05a.69.69,0,0,0,.18.46s0-.1,0-.14S600.55,232.07,600.55,232Z" transform="translate(-195.03 -230.22)"/><path class="cls-1" d="M381.41,234.51c.28-1,1.41-2.29-.54-2.7-1.06-.22-2.49-.27-2.26,1.62C379.92,232.8,380.48,234.13,381.41,234.51Z" transform="translate(-195.03 -230.22)"/><path class="cls-1" d="M724.68,235.24c2.14-.34,1.5-2,1-2.94s-1.54-1-2.05.31C726,232.72,724.9,234.14,724.68,235.24Z" transform="translate(-195.03 -230.22)"/><path class="cls-1" d="M408.35,343.25l-.28.07h0a3.94,3.94,0,0,1-.55,4c2.16-.67,2.18-2.3,1.85-4.09A.85.85,0,0,1,408.35,343.25Z" transform="translate(-195.03 -230.22)"/><path class="cls-1" d="M656.36,345.42c0-.06,0-.12-.08-.17a1.55,1.55,0,0,1-.53.09,1.36,1.36,0,0,1,.2.25,6.73,6.73,0,0,1-.42,4.74c1.6-1.3,1.2-3.44,2.13-5A1.11,1.11,0,0,1,656.36,345.42Z" transform="translate(-195.03 -230.22)"/><path class="cls-1" d="M374.58,234.27c-1.35-1.06-2.7-1.86-4.06,0C371.88,234,373.23,234.84,374.58,234.27Z" transform="translate(-195.03 -230.22)"/><path class="cls-1" d="M381.24,235.36h0a2.06,2.06,0,0,0,.17-.85,3.53,3.53,0,0,1-2.8-1.07l-1.13,1C378.67,234.95,380.31,233.74,381.24,235.36Z" transform="translate(-195.03 -230.22)"/><path class="cls-1" d="M444.61,235.27c-1.7-.36-3.14-2-5.1-1h0C441.22,234.55,442.62,236.39,444.61,235.27Z" transform="translate(-195.03 -230.22)"/><path class="cls-1" d="M785.56,233.25c0,2-1.29,1.62-2.39,1.6a1.31,1.31,0,0,1,.37,1.4,14.21,14.21,0,0,0,2.89-1.65C788.14,233,786.09,233.56,785.56,233.25Z" transform="translate(-195.03 -230.22)"/><path class="cls-1" d="M783,234.65l-.77.41a1.68,1.68,0,0,1,1-.21A2.1,2.1,0,0,0,783,234.65Z" transform="translate(-195.03 -230.22)"/><path class="cls-1" d="M324.37,235.23c.08,0,.1-.05.16-.08l-.67-.61a.63.63,0,0,1-.35-.31c-.86.78-3.08.56-2,2.75A3.7,3.7,0,0,1,324.37,235.23Z" transform="translate(-195.03 -230.22)"/><path class="cls-1" d="M537.55,286.06c.49-1,1.31-2-.2-2.89C537.52,284.12,536.73,285.14,537.55,286.06Z" transform="translate(-195.03 -230.22)"/><path class="cls-1" d="M272.55,286.06c.48-1,1.32-2-.17-2.88C272.52,284.13,271.73,285.14,272.55,286.06Z" transform="translate(-195.03 -230.22)"/><path class="cls-1" d="M573.71,327.58c-1.37-.08-3.37-1.44-3.19,1.59h0a1.61,1.61,0,0,1,.33.38C571.74,328.8,572.3,327.57,573.71,327.58Z" transform="translate(-195.03 -230.22)"/><path class="cls-1" d="M570.84,329.54a2.78,2.78,0,0,1-.3.21l0,1.05A1,1,0,0,0,570.84,329.54Z" transform="translate(-195.03 -230.22)"/><path class="cls-1" d="M721,276.93c1.39.9,1.2,2.09.55,3.36,1.2-1.77,1-3.74.84-5.72C722,275.38,721.79,276.36,721,276.93Z" transform="translate(-195.03 -230.22)"/><path class="cls-1" d="M720.95,276.88a2.1,2.1,0,0,0-.3,0c0,.13-.09.24-.12.37a1.85,1.85,0,0,0,.49-.31Z" transform="translate(-195.03 -230.22)"/><path class="cls-1" d="M732.55,269.3c.13.87-.4,2.06,1,2.33,1,.19,2,.15,2-1.31a1.48,1.48,0,0,1-.51.33C733.86,271.19,733.32,269.9,732.55,269.3Z" transform="translate(-195.03 -230.22)"/><path class="cls-1" d="M413.63,270a7.07,7.07,0,0,0-3.14-.94C411.35,270,412.09,271.36,413.63,270Z" transform="translate(-195.03 -230.22)"/><path class="cls-1" d="M468.2,367.38c.48-1.28-.45-2.2-.81-3.27q-.32.57-.79.11h0a1.5,1.5,0,0,0-.94,2.1C467,365.55,467.61,366.42,468.2,367.38Z" transform="translate(-195.03 -230.22)"/><path class="cls-1" d="M688.42,368.19c3-.42,2-2.08,1.15-3.69C689.21,365.74,689.9,367.31,688.42,368.19Z" transform="translate(-195.03 -230.22)"/><path class="cls-1" d="M458.6,291.34c-1.46.51-2.74,1.39-2,3.06.55,1.28,1.45.71,2-.34h0A1.79,1.79,0,0,1,458.6,291.34Z" transform="translate(-195.03 -230.22)"/><path class="cls-1" d="M690,290.38c-.64,1.45,1.15,3.62-.89,4.65,0,.12.12.22.16.34a5,5,0,0,1,.09,1l1-.1h0l.1-5.8-.42-.21S690,290.34,690,290.38Z" transform="translate(-195.03 -230.22)"/><path class="cls-1" d="M689,294.71a2.66,2.66,0,0,1-.42.54,3.56,3.56,0,0,0,.57-.23C689.1,294.92,689,294.82,689,294.71Z" transform="translate(-195.03 -230.22)"/><path class="cls-1" d="M465.83,373.68c.45-1.19-.54-1.28-1.33-1.46-.35.38-.66.33-.93-.09.15.87-.47,2.15,1.07,2.3A1.49,1.49,0,0,0,465.83,373.68Z" transform="translate(-195.03 -230.22)"/><path class="cls-1" d="M249.63,375.26l-1.11,0c-1.28.55-1.91,1.35-1,2.71h0A8.3,8.3,0,0,1,249.63,375.26Z" transform="translate(-195.03 -230.22)"/><path class="cls-1" d="M710,248.1a2.29,2.29,0,0,1,1.57-1.74c-2.07-1.17-2.13,1-3,1.8A2.1,2.1,0,0,1,710,248.1Z" transform="translate(-195.03 -230.22)"/><path class="cls-1" d="M710.8,248.28c-.26,0-.52-.12-.78-.18a3.77,3.77,0,0,0,.43,2.08l.6-2C711,248.2,710.89,248.25,710.8,248.28Z" transform="translate(-195.03 -230.22)"/><path class="cls-1" d="M398.62,325.21c-3.55,1-.38,2.06-.05,3.1C399.32,327.29,398.15,326.23,398.62,325.21Z" transform="translate(-195.03 -230.22)"/><path class="cls-1" d="M777.54,235.27c-1.09-.91-2.05.26-3.09.18C775.53,236.32,776.55,236,777.54,235.27Z" transform="translate(-195.03 -230.22)"/><path class="cls-1" d="M392.57,281.49c.86.26.34,1.38.45,2.11l.32.5c.33-1.72.37-3.39-.81-4.86A4.92,4.92,0,0,1,392.57,281.49Z" transform="translate(-195.03 -230.22)"/><path class="cls-1" d="M392.54,282.42a4.79,4.79,0,0,1,0-.93,2,2,0,0,0-.89,0h0l.86,1.37C392.54,282.7,392.55,282.56,392.54,282.42Z" transform="translate(-195.03 -230.22)"/><path class="cls-1" d="M324.75,234.62c-.08-.26-.12-.4-.18-.4h-1.06l.35.31a4.29,4.29,0,0,0,.89.22C324.75,234.71,324.77,234.68,324.75,234.62Z" transform="translate(-195.03 -230.22)"/><path class="cls-1" d="M324.75,234.76a.34.34,0,0,1-.22.39l.91.83C325.67,235.08,325.26,234.87,324.75,234.76Z" transform="translate(-195.03 -230.22)"/><path class="cls-1" d="M521.36,236.26a4.72,4.72,0,0,0,2.18-1c-1-1-2,.28-3,.11l.52.93Z" transform="translate(-195.03 -230.22)"/><path class="cls-1" d="M419.85,317.28a2.57,2.57,0,0,0,3.47,0A8.69,8.69,0,0,0,419.85,317.28Z" transform="translate(-195.03 -230.22)"/><path class="cls-1" d="M712.11,305l-.38.26c1.36,0,4.09,1.91,2.81-1.94C714.29,304.66,713,304.52,712.11,305Z" transform="translate(-195.03 -230.22)"/><path class="cls-1" d="M733.66,341.23c2.24-.7,2.52-2.2,1.72-4.14h0A10.7,10.7,0,0,1,733.66,341.23Z" transform="translate(-195.03 -230.22)"/><path class="cls-1" d="M250,374.9l.35-.33c.28-1.11,1.24-1.65,2.08-2.29-1.81.32-2.87,1.64-3.92,3A1.41,1.41,0,0,1,250,374.9Z" transform="translate(-195.03 -230.22)"/><path class="cls-1" d="M250.59,375.25l.82-1.32a9.59,9.59,0,0,1-.95.54l-.1.1a2.05,2.05,0,0,0-.09.3Z" transform="translate(-195.03 -230.22)"/><path class="cls-1" d="M249.63,375.26l.94,0a1.73,1.73,0,0,0-.56-.38Z" transform="translate(-195.03 -230.22)"/><path class="cls-1" d="M675.27,319.24c-1.61,1.36-1.72,2.69.06,4A6.33,6.33,0,0,1,675.27,319.24Z" transform="translate(-195.03 -230.22)"/><path class="cls-1" d="M633.53,383.24c-.82,1,0,1.59.77,1.66,1,.08,2.1-.14,1.29-1.65A1.39,1.39,0,0,1,633.53,383.24Z" transform="translate(-195.03 -230.22)"/><path class="cls-1" d="M302.54,287.05c-1.52-2.45-3.66-.1-5.42-.7h0C298.85,287.19,300.8,286.27,302.54,287.05Z" transform="translate(-195.03 -230.22)"/><path class="cls-1" d="M461.34,340c-.49-1.41-.73-3.05-2.83-2.86C459.48,338,459.93,339.48,461.34,340Z" transform="translate(-195.03 -230.22)"/><path class="cls-1" d="M334.71,232s0,.05,0,.09a.64.64,0,0,1,.51.11l0-.06a.8.8,0,0,1,.28-.83q-1.57-2-3.1,0A2.43,2.43,0,0,1,334.71,232Z" transform="translate(-195.03 -230.22)"/><path class="cls-1" d="M715.86,340.9a.59.59,0,0,1-.35.38l.15,3.37h0A6.47,6.47,0,0,0,715.86,340.9Z" transform="translate(-195.03 -230.22)"/><path class="cls-1" d="M715.74,339.48c0,.05,0,.1-.07.16.05.42.13.85.19,1.27.19-.52-.06-1.33.82-1.4A1.47,1.47,0,0,0,715.74,339.48Z" transform="translate(-195.03 -230.22)"/><path class="cls-1" d="M524.53,265.5l-3.91,1.92.95.84,3.1-1.66q-.47-.32-.37-.7T524.53,265.5Z" transform="translate(-195.03 -230.22)"/><path class="cls-1" d="M726.29,265.66a1.61,1.61,0,0,1,.24-.46c-1.75.31-1.42,1.76-1.29,2.79.1.8.87.77,1.38.06A1.93,1.93,0,0,1,726.29,265.66Z" transform="translate(-195.03 -230.22)"/><path class="cls-1" d="M254.39,277.24c-2.64,1.27,0,3.44-.85,5C254.72,280.73,253.42,278.79,254.39,277.24Z" transform="translate(-195.03 -230.22)"/><path class="cls-1" d="M608.3,245.14c1,.32,2.28,1.2,2.77-.53.29-1-.72-1.23-1.53-1.37C610,244.47,609.26,244.87,608.3,245.14Z" transform="translate(-195.03 -230.22)"/><path class="cls-1" d="M343.42,245.19c.87.3,1.91,1,2.51-.17s-.37-1.59-1.36-1.78C345.1,244.42,344.22,244.79,343.42,245.19Z" transform="translate(-195.03 -230.22)"/><path class="cls-1" d="M529.7,361.15c.65-1.45,2-2.38,2.7-3.83C531.14,358.33,529,358.77,529.7,361.15Z" transform="translate(-195.03 -230.22)"/><path class="cls-1" d="M754.37,271.31c.7-.46.76-1.23,0-1.37-1-.2-2.58-.94-2.86,1.11C752.53,270.63,753.5,270.41,754.37,271.31Z" transform="translate(-195.03 -230.22)"/><path class="cls-1" d="M567.54,287.05c-1.52-2.45-3.66-.1-5.42-.7h0C563.85,287.19,565.8,286.27,567.54,287.05Z" transform="translate(-195.03 -230.22)"/><path class="cls-1" d="M520.58,236.46a1.08,1.08,0,0,1-.06-1.07l-2,1.11h0A2.34,2.34,0,0,0,520.58,236.46Z" transform="translate(-195.03 -230.22)"/><path class="cls-1" d="M520.58,236.46a2.83,2.83,0,0,0,1,.78l-.5-.91Z" transform="translate(-195.03 -230.22)"/><path class="cls-1" d="M579,369.53l-.06,0a1.42,1.42,0,0,1-.47-2.33c-1.22.7-.68,2.09-1.21,3.06,1.15.2.49,1.42,1.09,1.93l.45-.93C577.9,370.39,578.49,370,579,369.53Z" transform="translate(-195.03 -230.22)"/><path class="cls-1" d="M579.31,369.57l.11-.39h0a3.06,3.06,0,0,1-.38.35A.71.71,0,0,0,579.31,369.57Z" transform="translate(-195.03 -230.22)"/><path class="cls-1" d="M399.93,356.85a7.06,7.06,0,0,0-1.68.88l.85,1.23,1.72-1.2C400.52,357.43,400.15,356.8,399.93,356.85Z" transform="translate(-195.03 -230.22)"/><path class="cls-1" d="M465.15,371.14c1.28-.54,3.39-.38,2.4-2.84C466.56,369.08,466.36,370.54,465.15,371.14Z" transform="translate(-195.03 -230.22)"/><path class="cls-1" d="M392.46,257.75h0l4.08.49c-1-.72-2.47-.69-3.49-1.48A1.23,1.23,0,0,1,392.46,257.75Z" transform="translate(-195.03 -230.22)"/><path class="cls-1" d="M393.05,256.77a2.67,2.67,0,0,0,0-.46c-.18,0-.35-.05-.53-.06A2.58,2.58,0,0,0,393.05,256.77Z" transform="translate(-195.03 -230.22)"/><path class="cls-1" d="M736.81,332.27c.59.09,1.35.44,1.75.2.93-.57.27-1.4,0-2.12A3.09,3.09,0,0,1,736.81,332.27Z" transform="translate(-195.03 -230.22)"/><path class="cls-1" d="M689.59,296.85a1,1,0,0,1-.18,0c0,.21-.07.43-.1.64l.33,3.46.18.07a1.17,1.17,0,0,1,.63,0l-.1-4.77h0A.94.94,0,0,1,689.59,296.85Z" transform="translate(-195.03 -230.22)"/><path class="cls-1" d="M689.2,296.39h0l0,.44h.16s0-.08,0-.12,0-.23,0-.35l-.19,0Z" transform="translate(-195.03 -230.22)"/><path class="cls-1" d="M456.88,333.49c.24,1.21,1.71,1.75,1.7,3.1C459.83,334.56,457.89,334.29,456.88,333.49Z" transform="translate(-195.03 -230.22)"/><path class="cls-1" d="M586.12,288.35h0c1.39.73,3,0,4.41.7C589.42,286.58,587.54,288.9,586.12,288.35Z" transform="translate(-195.03 -230.22)"/><path class="cls-1" d="M735.38,337.07v0c1.4-.63,2.81-1.25.9-2.95C736.44,335.27,736.46,336.34,735.38,337.07Z" transform="translate(-195.03 -230.22)"/><path class="cls-1" d="M735.37,337.08h0l0,.07,0,0Z" transform="translate(-195.03 -230.22)"/><path class="cls-1" d="M690,290c.22,0,.36.17.43.49-.57-1.35,1.72-3.2-.73-4.22C690.28,287.45,690,288.72,690,290Z" transform="translate(-195.03 -230.22)"/><path class="cls-1" d="M690,290a.72.72,0,0,0-.39.1l.39.19C690,290.16,690,290.06,690,290Z" transform="translate(-195.03 -230.22)"/><path class="cls-1" d="M463.54,232c-1.14-2.39-3-.11-4.4-.66h0C460.53,232.09,462.14,231.37,463.54,232Z" transform="translate(-195.03 -230.22)"/><path class="cls-1" d="M728.54,269.36c.84,2,1.87,1.79,3,.24h0A3.68,3.68,0,0,1,728.54,269.36Z" transform="translate(-195.03 -230.22)"/><path class="cls-1" d="M753.48,264.22c1.22-.76,2.76-1.43.84-3.06A3.29,3.29,0,0,1,753.48,264.22Z" transform="translate(-195.03 -230.22)"/><path class="cls-1" d="M549.95,286.36h-5.82A10.12,10.12,0,0,0,549.95,286.36Z" transform="translate(-195.03 -230.22)"/><path class="cls-1" d="M609.43,260.24a2.86,2.86,0,0,0-2.9,2.85A11.51,11.51,0,0,1,609.43,260.24Z" transform="translate(-195.03 -230.22)"/><path class="cls-1" d="M709.18,368.92c0-.16.09-.32.14-.48-.05,0-.08.08-.14.11-.69-.22-1.2-.53-.72-1.36-1,.79-1,1.95-1.16,3.06C708.1,370.55,708.41,368.77,709.18,368.92Z" transform="translate(-195.03 -230.22)"/><path class="cls-1" d="M709.17,369l.07,0h-.06Z" transform="translate(-195.03 -230.22)"/><path class="cls-1" d="M709.36,368.3l0,.13.05,0Z" transform="translate(-195.03 -230.22)"/><path class="cls-1" d="M629.37,250.18c.8-.07,1.77-.09,1.72-1.15,0-.87-.55-1.57-1.58-.74A1.14,1.14,0,0,1,629.37,250.18Z" transform="translate(-195.03 -230.22)"/><path class="cls-1" d="M719.64,360.25l.91,2C721.19,361.17,721.51,360.21,719.64,360.25Z" transform="translate(-195.03 -230.22)"/><path class="cls-1" d="M595.54,284.38c1.06,2.56,3,.18,4.38.75h0C598.54,284.35,596.9,285.19,595.54,284.38Z" transform="translate(-195.03 -230.22)"/><path class="cls-1" d="M664,253c.15,0,.19-.53.32-.79a1.3,1.3,0,0,0-.91.11C663.9,252.28,663.38,253.18,664,253Z" transform="translate(-195.03 -230.22)"/><path class="cls-1" d="M728.72,243.24c1.8-.06,1.44-1.5,1.15-2.33s-.94-.17-1.32.3A1.59,1.59,0,0,1,728.72,243.24Z" transform="translate(-195.03 -230.22)"/><path class="cls-1" d="M591.45,255.05c2.23-.16,1.59-1.48,1.11-2.74C591.86,253.09,592.61,254.45,591.45,255.05Z" transform="translate(-195.03 -230.22)"/><path class="cls-1" d="M312.64,239.29c-.75-.23-1.51-.94-2.29-.16-.61.61-.13,1.23.15,1.82A3.28,3.28,0,0,1,312.64,239.29Z" transform="translate(-195.03 -230.22)"/><path class="cls-1" d="M667.75,313.24c2.41-1,.14-2.86.71-4.2h0C667.57,310.33,668.49,311.93,667.75,313.24Z" transform="translate(-195.03 -230.22)"/><path class="cls-1" d="M582.49,369.37c.19.8.44,1.72,1.48,1.4s1.19-1,.2-1.7A1,1,0,0,1,582.49,369.37Z" transform="translate(-195.03 -230.22)"/><path class="cls-1" d="M394.63,252.3h0v0c.94,1.06,1.92.69,2.91-.07l-3-.07s.06.07.08.12Z" transform="translate(-195.03 -230.22)"/><path class="cls-1" d="M394.62,252.33l0,0h-.11a2.2,2.2,0,0,0,0,.34A3.24,3.24,0,0,0,394.62,252.33Z" transform="translate(-195.03 -230.22)"/><path class="cls-1" d="M394.63,252.3h0l-.15-.12.11.12Z" transform="translate(-195.03 -230.22)"/><path class="cls-1" d="M520.62,267.42c-.9.4-2.7.52-1.78,1.88.62.91,1.94-.26,2.73-1C520.52,268.81,520.46,268.23,520.62,267.42Z" transform="translate(-195.03 -230.22)"/><path class="cls-1" d="M326.48,255.11c2.17-.23,1.59-1.53,1.08-2.8h0C326.88,253.12,327.59,254.46,326.48,255.11Z" transform="translate(-195.03 -230.22)"/><path class="cls-1" d="M284.95,286.36h-5.82A10.11,10.11,0,0,0,284.95,286.36Z" transform="translate(-195.03 -230.22)"/><path class="cls-1" d="M310.11,287.36h0c1.4.72,3,0,4.42.69C313.41,285.58,311.54,287.9,310.11,287.36Z" transform="translate(-195.03 -230.22)"/><path class="cls-1" d="M720.54,365.28c-.17.72.45,1.83-1,1.93h0l-.05,1.17h0a1.4,1.4,0,0,1,2.21-.11l-.26-3.18h0C721.22,365.54,720.91,365.6,720.54,365.28Z" transform="translate(-195.03 -230.22)"/><path class="cls-1" d="M720.48,365.2c-1,.33-1,1.16-.93,2h0c.59-.52.46-1.4,1-2Z" transform="translate(-195.03 -230.22)"/><circle class="cls-1" cx="720.52" cy="365.27" transform="translate(-242.28 386.26) rotate(-45)"/><path class="cls-1" d="M720.54,365.28h0Z" transform="translate(-195.03 -230.22)"/><path class="cls-1" d="M720.52,365.27l0-.11s0,.06-.05.08Z" transform="translate(-195.03 -230.22)"/><path class="cls-1" d="M495.19,391l.17-.32-.32-.34-.34.32Z" transform="translate(-195.03 -230.22)"/><path class="cls-1" d="M643.39,297.74c.44,0,.89,0,1.34,0l-2.93-.55C642.18,297.68,642.49,297.71,643.39,297.74Z" transform="translate(-195.03 -230.22)"/><path class="cls-1" d="M639.75,295.94c.32-.14.91-.65,1.18-.18l.3.52c.7-.05,1.46,0,1.48-1.34-2.77.36-5.58-.34-8.23,1.05A5.7,5.7,0,0,0,639.75,295.94Z" transform="translate(-195.03 -230.22)"/><path class="cls-1" d="M643.59,305.26c2.25,0,4.48.1,6.1,2C648.72,303.41,646,304.8,643.59,305.26Z" transform="translate(-195.03 -230.22)"/><path class="cls-1" d="M651.53,298.6a1.93,1.93,0,0,0,.76-1l-.93.34h0l-1.88.3A2.22,2.22,0,0,0,651.53,298.6Z" transform="translate(-195.03 -230.22)"/><path class="cls-1" d="M655.74,345.33c.12-.26.27-.34.44-.3a4.08,4.08,0,0,1-.44-2.32,10.4,10.4,0,0,0-.17,2.48A1,1,0,0,1,655.74,345.33Z" transform="translate(-195.03 -230.22)"/><path class="cls-1" d="M656.16,340.73a6.29,6.29,0,0,0,.42-3.44A11.44,11.44,0,0,1,656.16,340.73Z" transform="translate(-195.03 -230.22)"/><path class="cls-1" d="M655.57,345.19a.86.86,0,0,0-1,.06l1,.07S655.57,345.23,655.57,345.19Z" transform="translate(-195.03 -230.22)"/><path class="cls-1" d="M656.28,345.24a1.54,1.54,0,0,0,.19,0,.63.63,0,0,0-.29-.18C656.21,345.1,656.23,345.17,656.28,345.24Z" transform="translate(-195.03 -230.22)"/><circle class="cls-1" cx="655.74" cy="345.33" transform="translate(-237.28 -134.01) rotate(-8.13)"/><path class="cls-1" d="M651.45,269.22c-2.25,1-4.4,2.33-7,2.09C647.45,272.9,649.63,271.66,651.45,269.22Z" transform="translate(-195.03 -230.22)"/><path class="cls-1" d="M689.47,301.17l.17-.11v-.13a3.55,3.55,0,0,1-.27-.31C689.4,300.8,689.43,301,689.47,301.17Z" transform="translate(-195.03 -230.22)"/><path class="cls-1" d="M689.47,301.17a1.27,1.27,0,0,0-.33.37,17.85,17.85,0,0,0-.07,2.46,12.41,12.41,0,0,1,.41,1.37l.13-3.53C689.56,301.61,689.51,301.39,689.47,301.17Z" transform="translate(-195.03 -230.22)"/><path class="cls-1" d="M689.07,296.79l.14-.4a.31.31,0,0,1-.51.14h0A1,1,0,0,0,689.07,296.79Z" transform="translate(-195.03 -230.22)"/><path class="cls-1" d="M689.07,296.79c-.44,1.33-.66,2.64.31,3.83a10.84,10.84,0,0,1-.07-3.15l-.06-.65A.9.9,0,0,1,689.07,296.79Z" transform="translate(-195.03 -230.22)"/><path class="cls-1" d="M688.22,292.76a2.41,2.41,0,0,1,.16-.28s-.05-.1-.08-.15h-.18C688.15,292.47,688.18,292.61,688.22,292.76Z" transform="translate(-195.03 -230.22)"/><path class="cls-1" d="M687.05,290.71c.09.87.25,1.62,1.07,1.62q0-.22-.07-.43c-.78-1.75.32-4-1.44-5.51C687.4,287.76,686.9,289.26,687.05,290.71Z" transform="translate(-195.03 -230.22)"/><path class="cls-1" d="M688.22,292.76a1.93,1.93,0,0,0,.34,2.5l-.12-1.8A6.69,6.69,0,0,1,688.22,292.76Z" transform="translate(-195.03 -230.22)"/><path class="cls-1" d="M546.34,305.25c1.19-.06,2.37,0,3.56,0a6.12,6.12,0,0,0,2.64-1c-3.08,1.36-6.48-.33-9.56,1A15.15,15.15,0,0,1,546.34,305.25Z" transform="translate(-195.03 -230.22)"/><path class="cls-1" d="M618.14,316.42l-4.65-1c.32.76,2.3.82,1.89,1.89C616.25,317,617.6,317.73,618.14,316.42Z" transform="translate(-195.03 -230.22)"/><path class="cls-1" d="M643.48,330.16c1-1.15.13-2.75.9-4C643.15,327.31,642.51,328.55,643.48,330.16Z" transform="translate(-195.03 -230.22)"/><path class="cls-1" d="M626.13,352.27h-.61c.11.32.4.38.68.47A1,1,0,0,1,626.13,352.27Z" transform="translate(-195.03 -230.22)"/><path class="cls-1" d="M626.13,352.27h.51l.09-.83A1.2,1.2,0,0,0,626.13,352.27Z" transform="translate(-195.03 -230.22)"/><path class="cls-1" d="M626.56,352.95a1,1,0,0,0-.36-.2,2,2,0,0,0,.32.52h0Z" transform="translate(-195.03 -230.22)"/><path class="cls-1" d="M645.62,319.36l-.2,4.81c1.2-1.07,1.07-2.51,1.13-3.9Z" transform="translate(-195.03 -230.22)"/><path class="cls-1" d="M651.36,298c.4-.1.69-.5,1-.73.26-1.07.13-2.32,1.19-3C651.07,294.42,651.69,296.48,651.36,298Z" transform="translate(-195.03 -230.22)"/><path class="cls-1" d="M652.4,297.25a3.22,3.22,0,0,1-.11.39l1.1-.4A.85.85,0,0,0,652.4,297.25Z" transform="translate(-195.03 -230.22)"/><path class="cls-1" d="M607.61,330.36a.58.58,0,0,1-.12-.45,19.88,19.88,0,0,0-3,3.21h0A5.09,5.09,0,0,0,607.61,330.36Z" transform="translate(-195.03 -230.22)"/><path class="cls-1" d="M607.51,329.8a.62.62,0,0,1,0-.15h0c-1.3-.32-1.81,1.09-2.87,1.31h0C606.16,331.9,606.58,330.28,607.51,329.8Z" transform="translate(-195.03 -230.22)"/><path class="cls-1" d="M600.93,232.62c1.42.15,2.86.13,4.28.28a1.14,1.14,0,0,1,.21-.27l-.44-.19-4.44-.2C600.82,232.37,600.92,232.5,600.93,232.62Z" transform="translate(-195.03 -230.22)"/><path class="cls-1" d="M605.56,232.87l-.12.05-.24,0c-.17.35,0,.69.36,1h0Q605.56,233.4,605.56,232.87Z" transform="translate(-195.03 -230.22)"/><path class="cls-1" d="M605.56,232.7v-.23a1.38,1.38,0,0,0-.15.16Z" transform="translate(-195.03 -230.22)"/><path class="cls-1" d="M600.93,232.62h-.15a1.28,1.28,0,0,1-.25-.23,2.25,2.25,0,0,0,0,.63.55.55,0,0,0,.41-.25S600.93,232.67,600.93,232.62Z" transform="translate(-195.03 -230.22)"/><path class="cls-1" d="M645.62,319.36c.53-.22.84-.21,1-.09a5,5,0,0,1,1-3C646.45,317,646.1,318.21,645.62,319.36Z" transform="translate(-195.03 -230.22)"/><path class="cls-1" d="M646.65,319.26c0,.31-.06.62-.1.93,0,0,0,.05,0,.08l.75.74C646.89,320.62,647.14,319.56,646.65,319.26Z" transform="translate(-195.03 -230.22)"/><path class="cls-1" d="M717.05,284.15v0h0s0-.06,0-.09Z" transform="translate(-195.03 -230.22)"/><path class="cls-1" d="M718.32,279.89v-.06a14.5,14.5,0,0,0-.58,2.36C717.91,281.41,718.08,280.64,718.32,279.89Z" transform="translate(-195.03 -230.22)"/><path class="cls-1" d="M718,278.64h0Z" transform="translate(-195.03 -230.22)"/><path class="cls-1" d="M717.95,278.63v0Z" transform="translate(-195.03 -230.22)"/><path class="cls-1" d="M573.47,353.18c.17,1.36,1.31.79,2,1C575.07,353.39,574,353.79,573.47,353.18Z" transform="translate(-195.03 -230.22)"/><path class="cls-1" d="M710,369.59a2.31,2.31,0,0,0-.51-.55l.14,2.32.37-1A3.5,3.5,0,0,0,710,369.59Z" transform="translate(-195.03 -230.22)"/><path class="cls-1" d="M709.77,366.74c-.12.46-.25.92-.37,1.38a.9.9,0,0,1,.2.11c.64-.58.87-1.61,1.85-1.83C710.58,366.1,710.08,366.3,709.77,366.74Z" transform="translate(-195.03 -230.22)"/><path class="cls-1" d="M709.45,368.85c.11,0,.2-.11.29-.32s0-.22-.14-.31a1.55,1.55,0,0,1-.23.17A4.16,4.16,0,0,1,709.45,368.85Z" transform="translate(-195.03 -230.22)"/><path class="cls-1" d="M709.31,368.07c0,.08,0,.16,0,.24l0-.19Z" transform="translate(-195.03 -230.22)"/><path class="cls-1" d="M717,285.34a2.35,2.35,0,0,0,.06-1.16h0A2.47,2.47,0,0,1,717,285.34Z" transform="translate(-195.03 -230.22)"/><path class="cls-1" d="M716.4,287.59a7,7,0,0,0-.12,1.05c.09-.21.18-.42.26-.62h-.1A1.94,1.94,0,0,1,716.4,287.59Z" transform="translate(-195.03 -230.22)"/><path class="cls-1" d="M516.82,373.56a.8.8,0,0,1-.33-.3h0a1.51,1.51,0,0,1,.21.37Z" transform="translate(-195.03 -230.22)"/><path class="cls-1" d="M517.62,372.94a2.94,2.94,0,0,1-.8.63h0c1.13,0,1.9-.9,2.9-1.23h0Z" transform="translate(-195.03 -230.22)"/><path class="cls-1" d="M516.67,373.64a2.07,2.07,0,0,1-.43.11l-.25.54C516.61,374.25,516.83,374,516.67,373.64Z" transform="translate(-195.03 -230.22)"/><path class="cls-1" d="M346.61,311.46c-.34.88-1.61,1.4-1,2.65C346.26,313.35,347.71,312.9,346.61,311.46Z" transform="translate(-195.03 -230.22)"/><path class="cls-1" d="M362.39,308a5.06,5.06,0,0,0-3.86-1.61c.08.35,1,.38.45.91a1.56,1.56,0,0,1-1.7,0A5.9,5.9,0,0,0,362.39,308Z" transform="translate(-195.03 -230.22)"/><path class="cls-1" d="M351.26,316.29c-.08-1-1-1.12-1.85-.95.8.59.43,1.25.12,1.91C350.29,317.24,351.36,317.54,351.26,316.29Z" transform="translate(-195.03 -230.22)"/><path class="cls-1" d="M335,232.51c.3.39.61.29.93.07a1,1,0,0,1-.46-.12,1.07,1.07,0,0,1-.1-.23h-.06A.66.66,0,0,1,335,232.51Z" transform="translate(-195.03 -230.22)"/><path class="cls-1" d="M336.59,232.34h0c-.07.07-.15.07-.22.11a1,1,0,0,0,.19.73A1.25,1.25,0,0,1,336.59,232.34Z" transform="translate(-195.03 -230.22)"/><path class="cls-1" d="M336.37,232.45a.9.9,0,0,1,0-.13h-.15l-.36.27A.82.82,0,0,0,336.37,232.45Z" transform="translate(-195.03 -230.22)"/><path class="cls-1" d="M335,232.51a2,2,0,0,1-.21-.38.69.69,0,0,0-.37.21A.52.52,0,0,0,335,232.51Z" transform="translate(-195.03 -230.22)"/><path class="cls-1" d="M430.45,280.13c.27,2.05-1.61,4.14.1,6.17C430,284.24,433.65,282.13,430.45,280.13Z" transform="translate(-195.03 -230.22)"/><path class="cls-1" d="M432.56,286.05c2-.86,3.23-2.73,5.1-3.74A6,6,0,0,0,432.56,286.05Z" transform="translate(-195.03 -230.22)"/><path class="cls-1" d="M407.93,343l.09,0c-.2-.39,0-1-.55-1.18,0,.11-.09.21-.14.32A2.06,2.06,0,0,1,407.93,343Z" transform="translate(-195.03 -230.22)"/><path class="cls-1" d="M407.34,342.06c-.4-.31-.93-.31-1.68.21a1.93,1.93,0,0,1,1.4.45Z" transform="translate(-195.03 -230.22)"/><path class="cls-1" d="M408.19,343.15a1.27,1.27,0,0,0,.16.1l.13,0c-.18-.22-.32-.3-.45-.3A.53.53,0,0,0,408.19,343.15Z" transform="translate(-195.03 -230.22)"/><path class="cls-1" d="M407.66,343.42h0c.13,0,.27-.06.4-.09,0-.13-.09-.25-.13-.37A.67.67,0,0,0,407.66,343.42Z" transform="translate(-195.03 -230.22)"/><path class="cls-1" d="M458.53,357.23c-.39-.34-.45-1-1.16-1C457.59,356.75,457.7,357.4,458.53,357.23Z" transform="translate(-195.03 -230.22)"/><path class="cls-1" d="M411.77,326.24l.74.89Q412.75,326.19,411.77,326.24Z" transform="translate(-195.03 -230.22)"/><path class="cls-1" d="M607.71,329.71c.09,0,.13-.13.21-.08l-.2.11h0s.14-.07,0,0c.19.11.29.22.22.35s-.22.26-.33.26c2.12-.68,3.89-1.73,4.57-4.41a9.6,9.6,0,0,0-4.63,3.7h0a.92.92,0,0,1,.13.07Z" transform="translate(-195.03 -230.22)"/><path class="cls-1" d="M607.72,329.75h0s0,0,0,0l0,0-.17.08a.62.62,0,0,0,0,.11l.1-.09Z" transform="translate(-195.03 -230.22)"/><path class="cls-1" d="M338.8,333.32a5,5,0,0,0,3.74-3.22A4.29,4.29,0,0,0,338.8,333.32Z" transform="translate(-195.03 -230.22)"/><path class="cls-1" d="M343.6,329.8a4.26,4.26,0,0,0,3.17-3.42C345.83,327.5,343.53,327.34,343.6,329.8Z" transform="translate(-195.03 -230.22)"/><path class="cls-1" d="M432.83,279a5.86,5.86,0,0,0,1.48-4.65C433.42,276.18,432,277.12,432.83,279Z" transform="translate(-195.03 -230.22)"/></svg>